<svg version="1.1" xmlns="http://www.w3.org/2000/svg" xmlns:xlink="http://www.w3.org/1999/xlink" width="35" height="35"><defs/><g><path fill="rgb(23,218,163)" stroke="none" paint-order="stroke fill markers" fill-rule="evenodd" d=" M 31.000213623046875 1.99978905916214 C 31.000213623046875 1.99978905916214 11.000113487243652 1.99978905916214 11.000113487243652 1.99978905916214 C 9.895639419555664 1.99978905916214 9.000139236450195 2.8952715396881104 9.000139236450195 3.999563455581665 C 9.000139236450195 3.999563455581665 9.000139236450195 9.999471545219421 9.000139236450195 9.999471545219421 C 9.000139236450195 9.999471545219421 3.0000972747802734 9.999471545219421 3.0000972747802734 9.999471545219421 C 1.8956232070922852 9.999471545219421 1.0001230239868164 10.894954025745392 1.0001230239868164 11.999830842018127 C 1.0001230239868164 11.999830842018127 1.0001230239868164 31.999914407730103 1.0001230239868164 31.999914407730103 C 1.0001230239868164 33.10420632362366 1.8956232070922852 33.99968880414963 3.0000972747802734 33.99968880414963 C 3.0000972747802734 33.99968880414963 23.000197410583496 33.99968880414963 23.000197410583496 33.99968880414963 C 24.104671478271484 33.99968880414963 25.000171661376953 33.10420632362366 25.000171661376953 31.999914407730103 C 25.000171661376953 31.999914407730103 25.000171661376953 25.999421417713165 25.000171661376953 25.999421417713165 C 25.000171661376953 25.999421417713165 31.000213623046875 25.999421417713165 31.000213623046875 25.999421417713165 C 32.10468769073486 25.999421417713165 33.00006866455078 25.103938937187195 33.00006866455078 23.99964702129364 C 33.00006866455078 23.99964702129364 33.00006866455078 3.999563455581665 33.00006866455078 3.999563455581665 C 33.00006866455078 2.8952715396881104 32.10468769073486 1.99978905916214 31.000213623046875 1.99978905916214 Z M 22.000150680541992 30.99973475933075 C 22.000150680541992 30.99973475933075 4.000144004821777 30.99973475933075 4.000144004821777 30.99973475933075 C 4.000144004821777 30.99973475933075 4.000144004821777 12.9994255900383 4.000144004821777 12.9994255900383 C 4.000144004821777 12.9994255900383 9.000139236450195 12.9994255900383 9.000139236450195 12.9994255900383 C 9.000139236450195 12.9994255900383 9.000139236450195 23.99964702129364 9.000139236450195 23.99964702129364 C 9.000139236450195 25.103938937187195 9.895639419555664 25.999421417713165 11.000113487243652 25.999421417713165 C 11.000113487243652 25.999421417713165 22.000150680541992 25.999421417713165 22.000150680541992 25.999421417713165 C 22.000150680541992 25.999421417713165 22.000150680541992 30.99973475933075 22.000150680541992 30.99973475933075 Z M 30.00016689300537 22.999467372894287 C 30.00016689300537 22.999467372894287 12.000160217285156 22.999467372894287 12.000160217285156 22.999467372894287 C 12.000160217285156 22.999467372894287 12.000160217285156 4.999743103981018 12.000160217285156 4.999743103981018 C 12.000160217285156 4.999743103981018 30.00016689300537 4.999743103981018 30.00016689300537 4.999743103981018 C 30.00016689300537 4.999743103981018 30.00016689300537 22.999467372894287 30.00016689300537 22.999467372894287 Z"/></g></svg>