<svg version="1.1" xmlns="http://www.w3.org/2000/svg" xmlns:xlink="http://www.w3.org/1999/xlink" width="35" height="35"><defs/><g><path fill="rgb(23,218,163)" stroke="none" paint-order="stroke fill markers" fill-rule="evenodd" d=" M 32.651495933532715 10.650916755199432 C 32.651495933532715 10.650916755199432 24.34868812561035 2.3476709723472595 24.34868812561035 2.3476709723472595 C 24.114441871643066 2.1137108206748962 23.807239532470703 1.9990703463554382 23.499679565429688 1.9990703463554382 C 23.192477226257324 1.9990703463554382 22.885870933532715 2.1137108206748962 22.65150547027588 2.3476709723472595 C 22.65150547027588 2.3476709723472595 1.0001182556152344 23.99892830848694 1.0001182556152344 23.99892830848694 C 1.0001182556152344 23.99892830848694 1.0001182556152344 33.998970091342926 1.0001182556152344 33.998970091342926 C 1.0001182556152344 33.998970091342926 11.00010871887207 33.998970091342926 11.00010871887207 33.998970091342926 C 11.00010871887207 33.998970091342926 32.651495933532715 12.347712755203247 32.651495933532715 12.347712755203247 C 32.88586139678955 12.113752603530884 33.00018310546875 11.805510103702545 33.00018310546875 11.49902230501175 C 33.00018310546875 11.191949605941772 32.88586139678955 10.884876906871796 32.651495933532715 10.650916755199432 Z M 5.560588836669922 23.43859374523163 C 5.560588836669922 23.43859374523163 19.43964958190918 9.559492647647858 19.43964958190918 9.559492647647858 C 19.43964958190918 9.559492647647858 25.4396915435791 15.559985637664795 25.4396915435791 15.559985637664795 C 25.4396915435791 15.559985637664795 11.560630798339844 29.438501834869385 11.560630798339844 29.438501834869385 C 11.560630798339844 29.438501834869385 5.560588836669922 23.43859374523163 5.560588836669922 23.43859374523163 Z M 4.000139236450195 26.120361983776093 C 4.000139236450195 26.120361983776093 8.87901782989502 30.999016046524048 8.87901782989502 30.999016046524048 C 8.87901782989502 30.999016046524048 4.000139236450195 30.999016046524048 4.000139236450195 30.999016046524048 C 4.000139236450195 30.999016046524048 4.000139236450195 26.120361983776093 4.000139236450195 26.120361983776093 Z M 27.5606632232666 13.43855196237564 C 27.5606632232666 13.43855196237564 21.56062126159668 7.4386438727378845 21.56062126159668 7.4386438727378845 C 21.56062126159668 7.4386438727378845 23.50015640258789 5.499114215373993 23.50015640258789 5.499114215373993 C 23.50015640258789 5.499114215373993 29.50007915496826 11.49902230501175 29.50007915496826 11.49902230501175 C 29.50007915496826 11.49902230501175 27.5606632232666 13.43855196237564 27.5606632232666 13.43855196237564 Z"/></g></svg>