<svg version="1.1" xmlns="http://www.w3.org/2000/svg" xmlns:xlink="http://www.w3.org/1999/xlink" width="35" height="35"><defs/><g><path fill="rgb(23,218,163)" stroke="none" paint-order="stroke fill markers" fill-rule="evenodd" d=" M 30.913020133972168 18.471753537654877 C 29.41014862060547 20.78035533428192 27.30610466003418 22.696488976478577 24.954463005065918 24.24413537979126 C 24.72736930847168 27.987497806549072 22.83051109313965 31.472919166088104 19.745970726013184 33.6727294921875 C 19.48764419555664 33.856388211250305 19.18246841430664 33.95114207267761 18.874908447265625 33.95114207267761 C 18.681074142456055 33.95114207267761 18.48664379119873 33.914293348789215 18.30210781097412 33.8382562994957 C 17.82455539703369 33.63997507095337 17.481828689575195 33.21124309301376 17.395878791809082 32.70120996236801 C 17.167831420898438 31.3535994887352 16.563440322875977 29.86034882068634 15.672231674194336 28.351890742778778 C 14.673734664916992 28.62445431947708 13.70444393157959 28.846131563186646 12.796784400939941 29.00288486480713 C 12.71119213104248 29.018677175045013 12.625361442565918 29.025695979595184 12.539888381958008 29.025695979595184 C 12.145424842834473 29.025695979595184 11.763120651245117 28.870112478733063 11.479402542114258 28.58585089445114 C 11.479402542114258 28.58585089445114 7.410551071166992 24.517868757247925 7.410551071166992 24.517868757247925 C 7.06532096862793 24.17277753353119 6.909514427185059 23.680876314640045 6.993080139160156 23.20008820295334 C 7.15079402923584 22.29290771484375 7.371927261352539 21.324312686920166 7.644439697265625 20.326472640037537 C 6.137157440185547 19.435669362545013 4.643941879272461 18.830882370471954 3.296280860900879 18.60335612297058 C 2.7865419387817383 18.516790866851807 2.357269287109375 18.174624145030975 2.160097122192383 17.697345435619354 C 1.9628057479858398 17.220066726207733 2.024794578552246 16.673769772052765 2.325082778930664 16.253226399421692 C 4.525328636169434 13.167876899242401 8.010173797607422 11.271629869937897 11.7527494430542 11.042933821678162 C 13.30020523071289 8.69163429737091 15.2167329788208 6.587162733078003 17.524744033813477 5.083968758583069 C 21.90318202972412 2.233749210834503 27.106786727905273 1.9980343580245972 32.49993419647217 1.9980343580245972 C 33.32855796813965 1.9980343580245972 33.99994468688965 2.668915092945099 33.99994468688965 3.497134029865265 C 33.99994468688965 8.675841987133026 33.761526107788086 14.096698701381683 30.913020133972168 18.471753537654877 Z M 19.465709686279297 30.660492539405823 C 20.823026657104492 29.33920258283615 21.77038288116455 27.65819889307022 22.209430694580078 25.830385208129883 C 20.859862327575684 26.520567655563354 19.479418754577637 27.10371333360672 18.11864471435547 27.585086345672607 C 18.69084930419922 28.620360016822815 19.149805068969727 29.6532940864563 19.465709686279297 30.660492539405823 Z M 5.338216781616211 16.533393681049347 C 6.343747138977051 16.848654985427856 7.376457214355469 17.30780178308487 8.411551475524902 17.879249453544617 C 8.893037796020508 16.518771171569824 9.475494384765625 15.138991177082062 10.16595458984375 13.789041101932526 C 8.339310646057129 14.228886187076569 6.660128593444824 15.175255000591278 5.338216781616211 16.533393681049347 Z M 19.161487579345703 7.597870588302612 C 14.387155532836914 10.70720100402832 11.22346019744873 17.41132915019989 10.092164039611816 22.95735454559326 C 10.092164039611816 22.95735454559326 13.040328979492188 25.904667556285858 13.040328979492188 25.904667556285858 C 18.58582592010498 24.77347022294998 25.289917945861816 21.61032897233963 28.399373054504395 16.835202276706696 C 30.55455780029297 13.524666130542755 30.935908317565918 9.38006204366684 30.991579055786133 5.006177008152008 C 26.617074966430664 5.061742544174194 22.472644805908203 5.442512691020966 19.161487579345703 7.597870588302612 Z M 23.499871253967285 14.998030185699463 C 22.118950843811035 14.998030185699463 20.99993324279785 13.879115760326385 20.99993324279785 12.498165965080261 C 20.99993324279785 11.117216169834137 22.118950843811035 9.99830174446106 23.499871253967285 9.99830174446106 C 24.880791664123535 9.99830174446106 25.99992847442627 11.117216169834137 25.99992847442627 12.498165965080261 C 25.99992847442627 13.879115760326385 24.880791664123535 14.998030185699463 23.499871253967285 14.998030185699463 Z M 4.107261657714844 28.77184921503067 C 4.418397903442383 27.745349049568176 5.371953010559082 26.998431265354156 6.499911308288574 26.998431265354156 C 7.880831718444824 26.998431265354156 8.999849319458008 28.117345690727234 8.999849319458008 29.498295485973358 C 8.999849319458008 30.62598341703415 8.252764701843262 31.57995593547821 7.226491928100586 31.890538036823273 C 7.226491928100586 31.890538036823273 3.645444869995117 32.97669804096222 3.645444869995117 32.97669804096222 C 3.5995492935180664 32.99015074968338 3.550673484802246 32.99833935499191 3.4998903274536133 32.99833935499191 C 3.2235631942749023 32.99833935499191 2.9999265670776367 32.774322509765625 2.9999265670776367 32.498249530792236 C 2.9999265670776367 32.4473631978035 3.0071983337402344 32.39881646633148 3.0213842391967773 32.35260933637619 C 3.0213842391967773 32.35260933637619 4.107261657714844 28.77184921503067 4.107261657714844 28.77184921503067 Z"/></g></svg>