<svg version="1.1" xmlns="http://www.w3.org/2000/svg" xmlns:xlink="http://www.w3.org/1999/xlink" width="35" height="31"><defs/><g><path fill="rgb(23,218,163)" stroke="none" paint-order="stroke fill markers" fill-rule="evenodd" d=" M 25.9998140335083 6.388116836547852 C 25.9998140335083 6.388116836547852 25.9998140335083 3.3934268951416016 25.9998140335083 3.3934268951416016 C 25.9998140335083 2.2908896803855896 25.104433059692383 1.3977468013763428 23.999839782714844 1.3977468013763428 C 23.999839782714844 1.3977468013763428 11.99987506866455 1.3977468013763428 11.99987506866455 1.3977468013763428 C 10.895401000976562 1.3977468013763428 9.999781608581543 2.2908896803855896 9.999781608581543 3.3934268951416016 C 9.999781608581543 3.3934268951416016 9.999781608581543 6.388116836547852 9.999781608581543 6.388116836547852 C 9.999781608581543 6.388116836547852 3.999858856201172 6.388116836547852 3.999858856201172 6.388116836547852 C 2.8953847885131836 6.388116836547852 1.9998846054077148 7.28242951631546 1.9998846054077148 8.384966731071472 C 1.9998846054077148 8.384966731071472 1.9998846054077148 27.34919172525406 1.9998846054077148 27.34919172525406 C 1.9998846054077148 28.45172894001007 2.8953847885131836 29.34604161977768 3.999858856201172 29.34604161977768 C 3.999858856201172 29.34604161977768 31.999855995178223 29.34604161977768 31.999855995178223 29.34604161977768 C 33.10433006286621 29.34604161977768 33.99983024597168 28.45172894001007 33.99983024597168 27.34919172525406 C 33.99983024597168 27.34919172525406 33.99983024597168 8.384966731071472 33.99983024597168 8.384966731071472 C 33.99983024597168 7.28242951631546 33.10433006286621 6.388116836547852 31.999855995178223 6.388116836547852 C 31.999855995178223 6.388116836547852 25.9998140335083 6.388116836547852 25.9998140335083 6.388116836547852 Z M 12.999921798706055 4.391851842403412 C 12.999921798706055 4.391851842403412 22.99991226196289 4.391851842403412 22.99991226196289 4.391851842403412 C 22.99991226196289 4.391851842403412 22.99991226196289 6.388116836547852 22.99991226196289 6.388116836547852 C 22.99991226196289 6.388116836547852 12.999921798706055 6.388116836547852 12.999921798706055 6.388116836547852 C 12.999921798706055 6.388116836547852 12.999921798706055 4.391851842403412 12.999921798706055 4.391851842403412 Z M 30.99980926513672 9.383391678333282 C 30.99980926513672 9.383391678333282 30.99980926513672 15.37160176038742 30.99980926513672 15.37160176038742 C 30.99980926513672 15.37160176038742 20.999818801879883 15.37160176038742 20.999818801879883 15.37160176038742 C 20.999818801879883 15.37160176038742 20.999818801879883 14.37317681312561 20.999818801879883 14.37317681312561 C 20.999818801879883 14.37317681312561 14.999896049499512 14.37317681312561 14.999896049499512 14.37317681312561 C 14.999896049499512 14.37317681312561 14.999896049499512 15.37160176038742 14.999896049499512 15.37160176038742 C 14.999896049499512 15.37160176038742 4.999905586242676 15.37160176038742 4.999905586242676 15.37160176038742 C 4.999905586242676 15.37160176038742 4.999905586242676 9.383391678333282 4.999905586242676 9.383391678333282 C 4.999905586242676 9.383391678333282 30.99980926513672 9.383391678333282 30.99980926513672 9.383391678333282 Z M 4.999905586242676 26.35135167837143 C 4.999905586242676 26.35135167837143 4.999905586242676 18.36629170179367 4.999905586242676 18.36629170179367 C 4.999905586242676 18.36629170179367 14.999896049499512 18.36629170179367 14.999896049499512 18.36629170179367 C 14.999896049499512 18.36629170179367 14.999896049499512 19.36471664905548 14.999896049499512 19.36471664905548 C 14.999896049499512 19.36471664905548 20.999818801879883 19.36471664905548 20.999818801879883 19.36471664905548 C 20.999818801879883 19.36471664905548 20.999818801879883 18.36629170179367 20.999818801879883 18.36629170179367 C 20.999818801879883 18.36629170179367 30.99980926513672 18.36629170179367 30.99980926513672 18.36629170179367 C 30.99980926513672 18.36629170179367 30.99980926513672 26.35135167837143 30.99980926513672 26.35135167837143 C 30.99980926513672 26.35135167837143 4.999905586242676 26.35135167837143 4.999905586242676 26.35135167837143 Z"/></g></svg>