<svg version="1.1" xmlns="http://www.w3.org/2000/svg" xmlns:xlink="http://www.w3.org/1999/xlink" width="75" height="56"><defs/><g><path fill="rgb(135,148,158)" stroke="none" paint-order="stroke fill markers" fill-rule="evenodd" d=" M 72.72743892669678 22.969038546085358 C 72.72743892669678 22.969038546085358 64.25678443908691 3.889588177204132 64.25678443908691 3.889588177204132 C 63.762542724609375 2.7765227556228638 62.64769744873047 1.9991901516914368 61.353322982788086 1.9991901516914368 C 59.84151077270508 1.9991901516914368 58.5781307220459 3.056105136871338 58.25531196594238 4.472148954868317 C 58.25531196594238 4.472148954868317 49.88825035095215 41.33023124933243 49.88825035095215 41.33023124933243 C 49.88825035095215 41.33023124933243 38.88034534454346 14.569869101047516 38.88034534454346 14.569869101047516 C 38.40458106994629 13.41352105140686 37.267324447631836 12.598754823207855 35.9415979385376 12.598754823207855 C 34.630534172058105 12.598754823207855 33.50543689727783 13.39421933889389 33.02156639099121 14.528926074504852 C 33.02156639099121 14.528926074504852 23.014423370361328 37.90446972846985 23.014423370361328 37.90446972846985 C 23.014423370361328 37.90446972846985 17.60863971710205 27.08030331134796 17.60863971710205 27.08030331134796 C 17.087575912475586 26.03625613451004 16.009923934936523 25.319168269634247 14.765021324157715 25.319168269634247 C 13.78476333618164 25.319168269634247 12.905952453613281 25.7648623585701 12.325045585632324 26.464988112449646 C 12.325045585632324 26.464988112449646 1.736638069152832 39.183646857738495 1.736638069152832 39.183646857738495 C 1.2775630950927734 39.736962616443634 1.000401496887207 40.44469207525253 1.000401496887207 41.219100177288055 C 1.000401496887207 42.97497111558914 2.4231643676757812 44.39920353889465 4.176852226257324 44.39920353889465 C 5.157110214233398 44.39920353889465 6.035921096801758 43.95409435033798 6.617066383361816 43.254553496837616 C 6.617066383361816 43.254553496837616 14.095065116882324 34.27106857299805 14.095065116882324 34.27106857299805 C 14.095065116882324 34.27106857299805 20.392176628112793 46.879766047000885 20.392176628112793 46.879766047000885 C 20.913240432739258 47.923228323459625 21.99077320098877 48.63914638757706 23.235675811767578 48.63914638757706 C 24.54673957824707 48.63914638757706 25.671836853027344 47.8442667722702 26.155707359313965 46.70956003665924 C 26.155707359313965 46.70956003665924 35.881635665893555 23.98910480737686 35.881635665893555 23.98910480737686 C 35.881635665893555 23.98910480737686 47.82652568817139 53.02823883295059 47.82652568817139 53.02823883295059 C 48.30205154418945 54.18517178297043 49.43954658508301 54.99876821041107 50.765153884887695 54.99876821041107 C 52.27684688568115 54.99876821041107 53.54022693634033 53.94068342447281 53.8629264831543 52.526979207992554 C 53.8629264831543 52.526979207992554 62.33358097076416 15.21618402004242 62.33358097076416 15.21618402004242 C 62.33358097076416 15.21618402004242 66.92039680480957 25.549034118652344 66.92039680480957 25.549034118652344 C 67.41463851928711 26.662099540233612 68.52948379516602 27.43943214416504 69.8238582611084 27.43943214416504 C 71.57742691040039 27.43943214416504 73.00042819976807 26.014614820480347 73.00042819976807 24.25874388217926 C 73.00042819976807 23.80076688528061 72.90315341949463 23.36326140165329 72.72743892669678 22.969038546085358 Z"/></g></svg>