<svg version="1.1" xmlns="http://www.w3.org/2000/svg" xmlns:xlink="http://www.w3.org/1999/xlink" width="53" height="57"><defs/><g><path fill="rgb(255,255,255)" stroke="none" paint-order="stroke fill markers" fill-rule="evenodd" d=" M 49.18881893157959 41.50295650959015 C 47.82160758972168 43.851331532001495 45.008864402770996 45.05447161197662 41.125502586364746 45.05447161197662 C 39.58961009979248 45.05447161197662 37.8764533996582 44.85443568229675 36.0291862487793 44.47483533620834 C 33.90308856964111 51.20118969678879 30.49835205078125 55.01006096601486 26.50031089782715 55.01006096601486 C 22.503819465637207 55.01006096601486 19.099082946777344 51.20118969678879 16.97298526763916 44.47775983810425 C 15.07636547088623 44.87373739480972 13.334121704101562 45.062075316905975 11.779990196228027 45.062075316905975 C 7.934417724609375 45.062075316905975 5.192008018493652 43.87589734792709 3.813352584838867 41.50471121072769 C 1.8872880935668945 38.18598645925522 3.423299789428711 33.51906633377075 8.008089065551758 28.498866379261017 C 3.424849510192871 23.47866642475128 1.8872880935668945 18.812916100025177 3.8116836547851562 15.494776248931885 C 5.71807861328125 12.218164324760437 10.453906059265137 11.184645354747772 16.96988582611084 12.526406824588776 C 19.097533226013184 5.7988826632499695 22.502269744873047 1.9888415932655334 26.50031089782715 1.9888415932655334 C 30.49835205078125 1.9888415932655334 33.90308856964111 5.7988826632499695 36.0291862487793 12.525821924209595 C 38.08626174926758 12.096505045890808 39.953317642211914 11.902318120002747 41.607465744018555 11.93682724237442 C 45.249786376953125 12.012864291667938 47.857728004455566 13.206061065196991 49.18715000152588 15.493606448173523 C 51.1133337020874 18.811161398887634 49.577322006225586 23.47866642475128 44.99241352081299 28.498866379261017 C 49.575772285461426 33.51731163263321 51.1133337020874 38.184231758117676 49.18881893157959 41.50295650959015 Z M 21.18762969970703 40.90460342168808 C 22.83665180206299 47.55843013525009 25.321807861328125 50.03840774297714 26.50031089782715 50.03840774297714 C 27.53635883331299 50.03840774297714 29.580440521240234 48.121689200401306 31.18034839630127 43.141847372055054 C 29.30661678314209 42.50781536102295 27.378883361816406 41.732822358608246 25.418367385864258 40.81277406215668 C 23.816909790039062 40.06176197528839 22.2432279586792 39.2434863448143 20.74166774749756 38.377833783626556 C 20.71877956390381 38.364965975284576 20.694222450256348 38.34975856542587 20.671095848083496 38.33689075708389 C 20.8316707611084 39.20488291978836 20.98437786102295 40.08106368780136 21.18762969970703 40.90460342168808 Z M 8.185234069824219 39.033507108688354 C 8.657183647155762 39.84651863574982 11.112775802612305 40.58758741617203 15.80103874206543 39.64355820417404 C 15.420641899108887 37.67653822898865 15.107598304748535 35.652782917022705 14.94046688079834 33.5237455368042 C 14.822449684143066 32.02230626344681 14.763321876525879 30.4723202586174 14.753665924072266 28.918239951133728 C 14.23403263092041 29.37095284461975 13.7290620803833 29.824835538864136 13.256993293762207 30.27813333272934 C 8.508172035217285 34.84269589185715 7.6262617111206055 38.06900638341904 8.185234069824219 39.033507108688354 Z M 18.058266639709473 17.89345270395279 C 11.884894371032715 16.179109692573547 8.727755546569824 17.027215242385864 8.181896209716797 17.965980350971222 C 7.696833610534668 18.8029727935791 8.309807777404785 21.3642515540123 11.616077423095703 25.028067529201508 C 12.95682430267334 23.8763986825943 14.415946006774902 22.738767445087433 15.994515419006348 21.634475529193878 C 17.512407302856445 20.575805842876434 19.059863090515137 19.59434300661087 20.600762367248535 18.704124629497528 C 19.738521575927734 18.40231603384018 18.886055946350098 18.123318552970886 18.058266639709473 17.89345270395279 Z M 31.812992095947266 16.093129336833954 C 30.16396999359131 9.438717722892761 27.678813934326172 6.9587401151657104 26.50031089782715 6.9587401151657104 C 25.46426296234131 6.9587401151657104 23.42006206512451 8.876628458499908 21.820154190063477 13.857055187225342 C 23.693885803222656 14.491672098636627 25.62173843383789 15.264325499534607 27.58213520050049 16.185543596744537 C 29.183592796325684 16.937140583992004 30.757274627685547 17.755416214466095 32.25895404815674 18.618144273757935 C 32.28184223175049 18.632181882858276 32.3065185546875 18.64738929271698 32.32940673828125 18.66084200143814 C 32.16883182525635 17.793434739112854 32.01624393463135 16.91608417034149 31.812992095947266 16.093129336833954 Z M 33.08340549468994 25.01695442199707 C 31.967010498046875 24.272376239299774 30.844178199768066 23.557627975940704 29.72468376159668 22.914237558841705 C 28.68541717529297 22.31763917207718 27.598586082458496 21.753210306167603 26.50031089782715 21.208668053150177 C 25.40191650390625 21.753210306167603 24.315085411071777 22.31763917207718 23.275938034057617 22.914237558841705 C 22.15632438659668 23.557627975940704 21.03349208831787 24.272376239299774 19.917097091674805 25.01753932237625 C 19.849863052368164 26.16862326860428 19.782629013061523 27.32263171672821 19.782629013061523 28.498866379261017 C 19.782629013061523 29.675685942173004 19.849863052368164 30.83144909143448 19.917097091674805 31.981363236904144 C 21.03349208831787 32.72535651922226 22.15632438659668 33.44010478258133 23.275938034057617 34.08232539892197 C 24.31675434112549 34.6818482875824 25.40191650390625 35.246862053871155 26.50031089782715 35.78906470537186 C 27.598586082458496 35.246862053871155 28.68541717529297 34.6818482875824 29.72468376159668 34.08349519968033 C 30.844178199768066 33.44010478258133 31.967010498046875 32.72535651922226 33.08340549468994 31.981363236904144 C 33.15063953399658 30.829694390296936 33.21787357330322 29.675685942173004 33.21787357330322 28.498866379261017 C 33.21787357330322 27.32263171672821 33.15063953399658 26.16862326860428 33.08340549468994 25.01695442199707 Z M 32.40152835845947 38.29419302940369 C 33.26376914978027 38.596586525440216 34.11444664001465 38.87499910593033 34.942355155944824 39.104864954948425 C 41.11238956451416 40.817453265190125 44.27119731903076 39.967008113861084 44.8187255859375 39.033507108688354 C 45.30378818511963 38.19417506456375 44.6891450881958 35.633481204509735 41.386213302612305 31.970250129699707 C 40.043678283691406 33.121334075927734 38.584675788879395 34.2589653134346 37.0062255859375 35.3650119304657 C 35.48988342285156 36.42251181602478 33.94063949584961 37.404559552669525 32.40152835845947 38.29419302940369 Z M 44.81526851654053 17.96422564983368 C 44.33998107910156 17.151214122772217 41.88605785369873 16.408975541591644 37.199463844299316 17.35300475358963 C 37.57986068725586 19.320024728775024 37.89290428161621 21.34553474187851 38.06015491485596 23.473987221717834 C 38.17817211151123 24.975426495075226 38.23718070983887 26.52424269914627 38.24695587158203 28.079492807388306 C 38.76670837402344 27.627364814281464 39.271559715270996 27.17348212003708 39.74350929260254 26.719014525413513 C 44.49256896972656 22.15620666742325 45.37424087524414 18.928141474723816 44.81526851654053 17.96422564983368 Z M 26.50031089782715 31.813496828079224 C 24.6463680267334 31.813496828079224 23.141469955444336 30.327849864959717 23.141469955444336 28.498866379261017 C 23.141469955444336 26.668128192424774 24.6463680267334 25.18423593044281 26.50031089782715 25.18423593044281 C 28.3542537689209 25.18423593044281 29.85903263092041 26.668128192424774 29.85903263092041 28.498866379261017 C 29.85903263092041 30.327849864959717 28.3542537689209 31.813496828079224 26.50031089782715 31.813496828079224 Z"/></g></svg>