<svg version="1.1" xmlns="http://www.w3.org/2000/svg" xmlns:xlink="http://www.w3.org/1999/xlink" width="69" height="55"><defs/><g><path fill="rgb(135,148,158)" stroke="none" paint-order="stroke fill markers" fill-rule="evenodd" d=" M 64.97189521789551 17.245967984199524 C 64.97189521789551 17.245967984199524 35.63866138458252 2.3894983530044556 35.63866138458252 2.3894983530044556 C 35.14430046081543 2.138576090335846 34.58938121795654 1.9987848997116089 34.00024890899658 1.9987848997116089 C 33.41123580932617 1.9987848997116089 32.856316566467285 2.138576090335846 32.362074851989746 2.3894983530044556 C 32.362074851989746 2.3894983530044556 3.028721809387207 17.245967984199524 3.028721809387207 17.245967984199524 C 1.8256616592407227 17.85543417930603 1.0002565383911133 19.115894496440887 1.0002565383911133 20.570541739463806 C 1.0002565383911133 22.024604082107544 1.8256616592407227 23.2850643992424 3.028721809387207 23.89511549472809 C 3.028721809387207 23.89511549472809 4.666895866394043 24.725089132785797 4.666895866394043 24.725089132785797 C 4.666895866394043 24.725089132785797 4.666895866394043 37.79995220899582 4.666895866394043 37.79995220899582 C 3.574819564819336 38.443927526474 2.833695411682129 39.62776589393616 2.833695411682129 40.998772382736206 C 2.833695411682129 43.05060291290283 4.475445747375488 44.713474690914154 6.500334739685059 44.713474690914154 C 8.525223731994629 44.713474690914154 10.166974067687988 43.05060291290283 10.166974067687988 40.998772382736206 C 10.166974067687988 39.62776589393616 9.42573070526123 38.443927526474 8.333654403686523 37.79995220899582 C 8.333654403686523 37.79995220899582 8.333654403686523 26.58214783668518 8.333654403686523 26.58214783668518 C 8.333654403686523 26.58214783668518 13.833613395690918 29.367443442344666 13.833613395690918 29.367443442344666 C 13.833613395690918 29.367443442344666 13.833613395690918 40.998772382736206 13.833613395690918 40.998772382736206 C 13.833613395690918 48.179009437561035 22.86240577697754 53.99876821041107 34.00024890899658 53.99876821041107 C 45.138211250305176 53.99876821041107 54.1670036315918 48.179009437561035 54.1670036315918 40.998772382736206 C 54.1670036315918 40.998772382736206 54.1670036315918 29.367443442344666 54.1670036315918 29.367443442344666 C 54.1670036315918 29.367443442344666 64.97189521789551 23.89511549472809 64.97189521789551 23.89511549472809 C 66.17495536804199 23.2850643992424 67.00024127960205 22.024604082107544 67.00024127960205 20.570541739463806 C 67.00024127960205 19.115894496440887 66.17495536804199 17.85543417930603 64.97189521789551 17.245967984199524 Z M 48.6670446395874 40.998772382736206 C 48.6670446395874 44.43447721004486 42.26109504699707 48.4281769990921 34.00024890899658 48.4281769990921 C 25.739521980285645 48.4281769990921 19.333691596984863 44.43447721004486 19.333691596984863 40.998772382736206 C 19.333691596984863 40.998772382736206 19.333691596984863 32.15215414762497 19.333691596984863 32.15215414762497 C 19.333691596984863 32.15215414762497 32.362074851989746 38.75217002630234 32.362074851989746 38.75217002630234 C 32.856316566467285 39.002507388591766 33.41123580932617 39.14171367883682 34.00024890899658 39.14171367883682 C 34.58938121795654 39.14171367883682 35.14430046081543 39.002507388591766 35.63866138458252 38.75217002630234 C 35.63866138458252 38.75217002630234 48.6670446395874 32.15215414762497 48.6670446395874 32.15215414762497 C 48.6670446395874 32.15215414762497 48.6670446395874 40.998772382736206 48.6670446395874 40.998772382736206 Z M 34.00024890899658 33.352954626083374 C 34.00024890899658 33.352954626083374 8.763284683227539 20.570541739463806 8.763284683227539 20.570541739463806 C 8.763284683227539 20.570541739463806 34.00024890899658 7.788713753223419 34.00024890899658 7.788713753223419 C 34.00024890899658 7.788713753223419 59.237213134765625 20.570541739463806 59.237213134765625 20.570541739463806 C 59.237213134765625 20.570541739463806 34.00024890899658 33.352954626083374 34.00024890899658 33.352954626083374 Z"/></g></svg>