<svg version="1.1" xmlns="http://www.w3.org/2000/svg" xmlns:xlink="http://www.w3.org/1999/xlink" width="56" height="57"><defs/><g><path fill="rgb(135,148,158)" stroke="none" paint-order="stroke fill markers" fill-rule="evenodd" d=" M 49.87923240661621 29.322991013526917 C 47.38620853424072 33.1529186964035 43.8961181640625 36.33126735687256 39.995232582092285 38.898980021476746 C 39.618412017822266 45.10886734724045 36.471763610839844 50.889437794685364 31.355300903320312 54.53921616077423 C 30.926743507385254 54.843949258327484 30.420461654663086 55.00070255994797 29.910245895385742 55.00070255994797 C 29.588738441467285 55.00070255994797 29.266277313232422 54.93928802013397 28.960028648376465 54.812949538230896 C 28.168002128601074 54.484235525131226 27.599254608154297 53.77299666404724 27.456799507141113 52.92723071575165 C 27.078548431396484 50.69174146652222 26.075879096984863 48.21527326107025 24.597683906555176 45.712484538555145 C 22.94127082824707 46.16461253166199 21.333495140075684 46.5319299697876 19.827881813049316 46.79279553890228 C 19.685903549194336 46.819116055965424 19.543448448181152 46.82964426279068 19.401589393615723 46.82964426279068 C 18.747249603271484 46.82964426279068 18.113056182861328 46.57228809595108 17.642537117004395 46.10085839033127 C 17.642537117004395 46.10085839033127 10.89290714263916 39.35227781534195 10.89290714263916 39.35227781534195 C 10.320225715637207 38.78024524450302 10.061899185180664 37.964309215545654 10.200420379638672 37.166505098342896 C 10.462084770202637 35.6621413230896 10.829010963439941 34.055419981479645 11.280933380126953 32.399567008018494 C 8.780637741088867 30.9226935505867 6.303587913513184 29.919004499912262 4.068175315856934 29.541743755340576 C 3.2225046157836914 29.398443162441254 2.510586738586426 28.830504894256592 2.183476448059082 28.038549780845642 C 1.8561277389526367 27.246594667434692 1.959005355834961 26.341168880462646 2.457180976867676 25.643382728099823 C 6.1068925857543945 20.525504410266876 11.887589454650879 17.379910171031952 18.095890045166016 17.000894725322723 C 20.66282367706299 13.099609196186066 23.842016220092773 9.608923733234406 27.670660972595215 7.116078317165375 C 34.933725357055664 2.387158751487732 43.56543159484863 1.9964452981948853 52.51161193847656 1.9964452981948853 C 53.88621425628662 1.9964452981948853 54.99986743927002 3.1095107197761536 54.99986743927002 4.482856810092926 C 54.99986743927002 13.073873579502106 54.60456943511963 22.06613200902939 49.87923240661621 29.322991013526917 Z M 30.890265464782715 49.54182732105255 C 33.14189052581787 47.34962069988251 34.71342658996582 44.5619854927063 35.44155693054199 41.52986192703247 C 33.20280647277832 42.67509686946869 30.913034439086914 43.64252209663391 28.65568733215332 44.44091111421585 C 29.60483169555664 46.157593727111816 30.36622142791748 47.87135183811188 30.890265464782715 49.54182732105255 Z M 7.455388069152832 26.107793629169464 C 9.123245239257812 26.631279468536377 10.83640193939209 27.39281976222992 12.553373336791992 28.34035837650299 C 13.352075576782227 26.083812713623047 14.31838607788086 23.795097529888153 15.463629722595215 21.555513978004456 C 12.433568000793457 22.284299850463867 9.648123741149902 23.854757368564606 7.455388069152832 26.107793629169464 Z M 30.385652542114258 11.285248219966888 C 22.465864181518555 16.443484663963318 17.21791362762451 27.564195573329926 15.341320991516113 36.76409363746643 C 15.341320991516113 36.76409363746643 20.231882095336914 41.65327590703964 20.231882095336914 41.65327590703964 C 29.43066692352295 39.77750039100647 40.55158233642578 34.52977418899536 45.709529876708984 26.60846835374832 C 49.284735679626465 21.116838693618774 49.91726016998291 14.24191963672638 50.009647369384766 6.986230432987213 C 42.75313949584961 7.078644692897797 35.878220558166504 7.7103371024131775 30.385652542114258 11.285248219966888 Z M 37.58231735229492 23.56113737821579 C 35.29159164428711 23.56113737821579 33.435264587402344 21.704663574695587 33.435264587402344 19.41419368982315 C 33.435264587402344 17.123138904571533 35.29159164428711 15.26666510105133 37.58231735229492 15.26666510105133 C 39.872923851013184 15.26666510105133 41.7293701171875 17.123138904571533 41.7293701171875 19.41419368982315 C 41.7293701171875 21.704663574695587 39.872923851013184 23.56113737821579 37.58231735229492 23.56113737821579 Z M 5.4134521484375 46.408515989780426 C 5.929509162902832 44.70645588636398 7.511416435241699 43.46646708250046 9.382406234741211 43.46646708250046 C 11.673131942749023 43.46646708250046 13.529458999633789 45.32294088602066 13.529458999633789 47.61458057165146 C 13.529458999633789 49.485091984272 12.290040016174316 51.06783241033554 10.58761215209961 51.58312964439392 C 10.58761215209961 51.58312964439392 4.647294044494629 53.38462281227112 4.647294044494629 53.38462281227112 C 4.57111930847168 53.40684902667999 4.490176200866699 53.41971683502197 4.405895233154297 53.41971683502197 C 3.947416305541992 53.41971683502197 3.5765562057495117 53.04888999462128 3.5765562057495117 52.590912997722626 C 3.5765562057495117 52.506102442741394 3.5887155532836914 52.42538619041443 3.6121997833251953 52.34876424074173 C 3.6121997833251953 52.34876424074173 5.4134521484375 46.408515989780426 5.4134521484375 46.408515989780426 Z"/></g></svg>