<svg version="1.1" xmlns="http://www.w3.org/2000/svg" xmlns:xlink="http://www.w3.org/1999/xlink" width="25" height="37"><defs/><g><path fill="rgb(233,233,233)" stroke="none" paint-order="stroke fill markers" fill-rule="evenodd" d=" M 23.97740602493286 17.44298827648163 C 23.97740602493286 17.44298827648163 18.954373598098755 22.468902587890625 18.954373598098755 22.468902587890625 C 18.954373598098755 22.468902587890625 18.94949197769165 22.464458346366882 18.94949197769165 22.464458346366882 C 18.94949197769165 22.464458346366882 8.268738985061646 33.1313351392746 8.268738985061646 33.1313351392746 C 8.268738985061646 33.1313351392746 5.731381177902222 35.16305065155029 3.512800931930542 32.91365444660187 C 1.2940657138824463 30.663909673690796 3.0335497856140137 28.30907166004181 3.0335497856140137 28.30907166004181 C 3.0335497856140137 28.30907166004181 13.680983781814575 17.675395965576172 13.680983781814575 17.675395965576172 C 13.680983781814575 17.675395965576172 2.491767406463623 7.504444241523743 2.491767406463623 7.504444241523743 C 2.491767406463623 7.504444241523743 1.1487019062042236 4.536126613616943 2.8140318393707275 2.847663402557373 C 4.4793617725372314 1.1592001914978027 7.5147998332977295 2.478529930114746 7.5147998332977295 2.478529930114746 C 7.5147998332977295 2.478529930114746 18.708897829055786 12.65401303768158 18.708897829055786 12.65401303768158 C 18.708897829055786 12.65401303768158 18.74213933944702 12.62072479724884 18.74213933944702 12.62072479724884 C 18.74213933944702 12.62072479724884 23.97740602493286 17.44298827648163 23.97740602493286 17.44298827648163 Z"/></g></svg>