<svg version="1.1" xmlns="http://www.w3.org/2000/svg" xmlns:xlink="http://www.w3.org/1999/xlink" width="25" height="37"><defs/><g><path fill="rgb(233,233,233)" stroke="none" paint-order="stroke fill markers" fill-rule="evenodd" d=" M 1.022524356842041 17.442946791648865 C 1.022524356842041 17.442946791648865 6.0455567836761475 22.468948245048523 6.0455567836761475 22.468948245048523 C 6.0455567836761475 22.468948245048523 6.050438404083252 22.46441686153412 6.050438404083252 22.46441686153412 C 6.050438404083252 22.46441686153412 16.731191396713257 33.13129365444183 16.731191396713257 33.13129365444183 C 16.731191396713257 33.13129365444183 19.26854920387268 35.16309630870819 21.48712944984436 32.913612961769104 C 23.705864667892456 30.663955330848694 21.96638059616089 28.309117317199707 21.96638059616089 28.309117317199707 C 21.96638059616089 28.309117317199707 11.318946599960327 17.67544162273407 11.318946599960327 17.67544162273407 C 11.318946599960327 17.67544162273407 22.50816297531128 7.504402756690979 22.50816297531128 7.504402756690979 C 22.50816297531128 7.504402756690979 23.85122847557068 4.536259412765503 22.185898542404175 2.8476219177246094 C 20.520491123199463 1.159158706665039 17.485130548477173 2.478575587272644 17.485130548477173 2.478575587272644 C 17.485130548477173 2.478575587272644 6.291032552719116 12.653971552848816 6.291032552719116 12.653971552848816 C 6.291032552719116 12.653971552848816 6.257791042327881 12.620683312416077 6.257791042327881 12.620683312416077 C 6.257791042327881 12.620683312416077 1.022524356842041 17.442946791648865 1.022524356842041 17.442946791648865 Z"/></g></svg>